# xmcd
#
# Track frame offsets:
#	150
#	16730
#	68897
#	101550
#	126097
#	152037
#	168772
#	195645
#	236655
#	262877
#	281322
#	302467
#
# Disc length: 4286
#
# Revision: 3
# Processed by: cddbd v1.5.1PL0 Copyright (c) Steve Scherf et al.
# Submitted via: ExactAudioCopy v0.90b4
# Normalized: r2:DSETVAR1
#
DISCID=8f10bc0c
DTITLE=Various Artist - Jazz Collection
DYEAR=1995
DGENRE=Jazz
TTITLE0=Palle Mikkelborg - Aritmo - Prince of Peace
TTITLE1=Miles Davis - All Blues
TTITLE2=Niels Henning Ørsted Pedersen - To a Brother
TTITLE3=Dave Brubeck - Take Five
TTITLE4=Bill Evans - You must believe in Spring
TTITLE5=Niels Lan Doky - Misty Dawn
TTITLE6=Palle Mikkelborg - Glass Painting
TTITLE7=Miles Davis - So What
TTITLE8=Toots Thielemans - Killer Joe
TTITLE9=Niels Lan Doky - Rough Edges
TTITLE10=Niels Henning Orsted Pedersen - Dancing Girls
TTITLE11=Palle Mikkelborg - Smile
EXTD=YEAR: 1995
EXTT0=
EXTT1=
EXTT2=
EXTT3=
EXTT4=
EXTT5=
EXTT6=
EXTT7=
EXTT8=
EXTT9=
EXTT10=
EXTT11=
PLAYORDER=
